<?xml version="1.0" encoding="UTF-8"?>
<svg xmlns="http://www.w3.org/2000/svg" xmlns:xlink="http://www.w3.org/1999/xlink" viewBox="0 0 1548 793.5">
  <defs>
    <style>
      .cls-1 {
        fill: none;
        stroke: #9ca3db;
        stroke-miterlimit: 10;
      }

      .cls-2 {
        fill: url(#radial-gradient-5);
      }

      .cls-3 {
        isolation: isolate;
      }

      .cls-4 {
        filter: url(#outer-glow-1);
      }

      .cls-5 {
        fill: url(#radial-gradient);
      }

      .cls-6 {
        fill: url(#radial-gradient-4);
      }

      .cls-6, .cls-7, .cls-8 {
        mix-blend-mode: color-dodge;
      }

      .cls-7 {
        fill: url(#radial-gradient-6);
      }

      .cls-9 {
        fill: url(#radial-gradient-3);
      }

      .cls-10 {
        fill: #1a1a1a;
      }

      .cls-8 {
        fill: url(#radial-gradient-2);
      }
    </style>
    <radialGradient id="radial-gradient" cx="1143.5" cy="303" fx="1143.5" fy="303" r="26.5" gradientUnits="userSpaceOnUse">
      <stop offset=".01" stop-color="#fff"/>
      <stop offset="1" stop-color="#000"/>
    </radialGradient>
    <radialGradient id="radial-gradient-2" cx="1143.82" cy="303.32" fx="1143.82" fy="303.32" r="13.57" xlink:href="#radial-gradient"/>
    <radialGradient id="radial-gradient-3" cx="1059.5" cy="369" fx="1059.5" fy="369" r="26.5" gradientUnits="userSpaceOnUse">
      <stop offset=".01" stop-color="#aa5000"/>
      <stop offset="1" stop-color="#000"/>
    </radialGradient>
    <radialGradient id="radial-gradient-4" cx="1059.82" cy="369.32" fx="1059.82" fy="369.32" r="13.57" gradientUnits="userSpaceOnUse">
      <stop offset=".01" stop-color="#fff"/>
      <stop offset="1" stop-color="#000"/>
    </radialGradient>
    <radialGradient id="radial-gradient-5" cx="1059.5" cy="232" fx="1059.5" fy="232" r="31" gradientUnits="userSpaceOnUse">
      <stop offset=".01" stop-color="#aaafff"/>
      <stop offset="1" stop-color="#000"/>
    </radialGradient>
    <radialGradient id="radial-gradient-6" cx="1059" cy="231.5" fx="1059" fy="231.5" r="9.5" gradientUnits="userSpaceOnUse">
      <stop offset=".01" stop-color="#aaafff"/>
      <stop offset="1" stop-color="#000"/>
    </radialGradient>
    <filter id="outer-glow-1" filterUnits="userSpaceOnUse">
      <feOffset dx="0" dy="0"/>
      <feGaussianBlur result="blur" stdDeviation="30"/>
      <feFlood flood-color="#234099" flood-opacity="1"/>
      <feComposite in2="blur" operator="in"/>
      <feComposite in="SourceGraphic"/>
    </filter>
  </defs>
  <g class="cls-3">
    <g id="Layer_1" data-name="Layer 1">
      <rect class="cls-10" x="90.5" width="1366" height="768"/>
      <g>
        <circle class="cls-5" cx="1143.5" cy="303" r="26.5"/>
        <circle class="cls-8" cx="1143.82" cy="303.32" r="13.57"/>
      </g>
      <circle class="cls-9" cx="1059.5" cy="369" r="26.5"/>
      <circle class="cls-6" cx="1059.82" cy="369.32" r="13.57"/>
      <circle class="cls-2" cx="1059.5" cy="232" r="31"/>
      <circle class="cls-7" cx="1059" cy="231.5" r="9.5"/>
      <g class="cls-4">
        <path class="cls-1" d="M90.5,702.12s99.5-45.62,194.5-45.62,44.55,40.23,153.28,45.62,101.7-45.62,202.21-45.62,110.23,44.03,191.87,46.02,131.64-123.57,236.14-115.29,77.5,97.28,164.5,97.28,167-72.3,224-73.15"/>
        <path class="cls-1" d="M90.5,699.87s97.66-41.87,192.09-41.48c22.48,.05,36.85,2.34,47.23,5.82,32.68,10.89,25.13,33.44,104.46,36.88,73.68,3.02,93.03-20.39,133.25-34.34,17.03-5.96,37.29-10.22,66.58-10.07,98.12,.59,107.7,43.93,189.45,45.84,79.94,1.84,130.49-113.81,225.19-114.95,3.71-.04,7.49,.09,11.34,.42,101.98,8.4,79.97,96.85,165.09,96.86,85.29,.01,176.62-77.64,231.81-76.5"/>
        <path class="cls-1" d="M90.5,697.63s95.81-38.12,189.68-37.35c21.94,.11,36.19,2.33,46.67,5.62,33.23,10.42,27.13,31.54,103.42,34.17,71.18,2.45,90.58-20.54,131.65-33.91,17.27-5.62,37.31-9.61,65.8-9.3,95.72,1.17,105.16,43.83,187.02,45.66,81.24,1.77,133.07-113.15,225.58-114.23,3.7-.04,7.48,.12,11.34,.47,99.44,8.82,82.44,96.42,165.67,96.44,83.57,.02,186.24-82.98,239.62-79.86"/>
        <path class="cls-1" d="M90.5,695.39s93.97-34.15,187.27-33.21c21.4,.21,35.53,2.31,46.12,5.42,33.79,9.9,29.14,29.55,102.39,31.45,68.69,1.79,88.1-20.75,130.05-33.47,17.5-5.3,37.33-9,65.02-8.53,93.33,1.76,102.62,43.72,184.59,45.48,82.55,1.7,135.65-112.49,225.98-113.51,3.69-.04,7.47,.15,11.33,.51,96.91,9.07,84.91,96,166.26,96.03,81.86,.03,195.86-88.32,247.43-83.22"/>
        <path class="cls-1" d="M90.5,693.14s92.12-30.34,184.86-29.08c20.86,.28,34.87,2.29,45.56,5.22,34.35,9.39,31.14,27.55,101.35,28.74,66.2,1.12,85.61-20.97,128.45-33.03,17.72-4.99,37.35-8.38,64.24-7.76,90.93,2.35,100.08,43.62,182.17,45.3,83.86,1.64,138.23-111.82,226.38-112.79,3.69-.04,7.46,.17,11.32,.55,94.39,9.3,87.38,95.57,166.84,95.61,80.14,.04,205.48-93.66,255.24-86.57"/>
        <path class="cls-1" d="M90.5,690.9s90.27-26.53,182.44-24.95c20.31,.35,34.21,2.27,45.01,5.01,34.92,8.86,33.15,25.55,100.32,26.02,63.72,.45,83.12-21.2,126.85-32.59,17.95-4.68,37.37-7.77,63.46-7,88.54,2.93,97.54,43.52,179.74,45.12,85.17,1.57,140.81-111.16,226.77-112.07,3.68-.03,7.45,.19,11.32,.59,91.86,9.52,89.85,95.14,167.43,95.19,78.43,.05,215.1-99,263.05-89.93"/>
        <path class="cls-1" d="M90.5,688.66s88.43-22.73,180.03-20.81c19.77,.41,33.56,2.25,44.45,4.81,35.48,8.34,35.18,24.57,99.28,23.31,61.22-1.2,80.63-21.43,125.25-32.16,18.17-4.37,37.4-7.21,62.68-6.23,86.15,3.34,95.01,43.42,177.32,44.94,86.48,1.5,143.39-110.49,227.17-111.35,3.67-.03,7.44,.21,11.31,.63,89.33,9.72,92.32,94.72,168.01,94.77,76.71,.06,224.71-104.34,270.86-93.28"/>
        <path class="cls-1" d="M90.5,686.41s86.58-18.93,177.62-16.68c19.23,.48,32.9,2.23,43.9,4.61,36.05,7.81,37.18,21.53,98.24,20.6,58.75-.9,78.14-21.67,123.65-31.72,18.39-4.06,37.42-6.6,61.89-5.46,83.76,3.9,92.47,43.31,174.89,44.76,87.79,1.43,145.98-109.83,227.56-110.63,3.67-.03,7.43,.23,11.3,.67,86.8,9.91,94.79,94.29,168.6,94.36,75,.07,234.33-109.68,278.67-96.64"/>
        <path class="cls-1" d="M90.5,684.17s84.73-15.14,175.21-12.54c18.69,.54,32.24,2.2,43.35,4.41,36.62,7.27,39.19,19.52,97.21,17.88,56.27-1.58,75.64-21.91,122.05-31.28,18.61-3.76,37.44-5.99,61.11-4.69,81.36,4.47,89.93,43.21,172.46,44.58,89.1,1.36,148.56-109.17,227.96-109.91,3.66-.03,7.42,.25,11.3,.72,84.28,10.07,97.26,93.86,169.18,93.94,73.29,.09,243.95-115.03,286.48-99.99"/>
        <path class="cls-1" d="M90.5,681.93s82.88-11.36,172.8-8.41c18.14,.6,31.59,2.18,42.79,4.21,37.19,6.74,41.21,17.49,96.17,15.17,53.79-2.27,73.15-22.16,120.45-30.85,18.83-3.46,37.47-5.38,60.33-3.92,78.97,5.04,87.39,43.11,170.04,44.4,90.41,1.29,151.14-108.5,228.36-109.19,3.65-.03,7.41,.27,11.29,.76,81.76,10.23,99.73,93.43,169.77,93.52,71.57,.1,253.57-120.37,294.29-103.35"/>
        <path class="cls-1" d="M90.5,679.69s81.04-7.59,170.39-4.28c17.6,.65,30.93,2.15,42.24,4.01,37.76,6.2,43.23,15.46,95.14,12.45,51.32-2.97,70.65-22.42,118.85-30.41,19.05-3.16,37.49-4.77,59.55-3.16,76.58,5.61,84.85,43.01,167.61,44.22,91.72,1.22,153.72-107.84,228.75-108.47,3.65-.02,7.4,.29,11.28,.8,79.23,10.36,102.2,93.01,170.35,93.11,69.86,.11,263.19-125.71,302.1-106.71"/>
        <path class="cls-1" d="M90.5,677.44s79.19-3.82,167.98-.14c17.06,.71,30.28,2.12,41.68,3.8,38.34,5.65,45.25,13.41,94.1,9.74,48.85-3.67,68.15-22.68,117.25-29.97,19.27-2.86,37.51-4.16,58.77-2.39,74.19,6.19,82.32,42.9,165.19,44.04,93.03,1.15,156.3-107.18,229.15-107.75,3.64-.02,7.4,.31,11.28,.84,76.71,10.48,104.67,92.58,170.94,92.69,68.14,.12,272.81-131.05,309.9-110.06"/>
        <path class="cls-1" d="M90.5,675.2s77.34-.07,165.57,3.99c16.52,.76,29.62,2.09,41.13,3.6,38.91,5.1,47.28,11.35,93.07,7.03s65.65-22.95,115.65-29.53c19.49-2.57,37.54-3.55,57.99-1.62,71.8,6.77,79.78,42.8,162.76,43.86,94.34,1.08,158.88-106.51,229.55-107.03,3.63-.02,7.39,.33,11.27,.88,74.2,10.59,107.13,92.15,171.52,92.27,66.43,.13,282.43-136.39,317.71-113.42"/>
        <path class="cls-1" d="M90.5,672.96s75.5,3.68,163.15,8.13c15.97,.81,28.97,2.06,40.57,3.4,39.48,4.55,49.3,9.28,92.03,4.31,43.91-5.11,63.15-23.22,114.05-29.1,19.71-2.27,37.56-2.94,57.21-.85,69.41,7.36,77.24,42.7,160.33,43.68,95.64,1.01,161.46-105.85,229.94-106.3,3.63-.02,7.38,.35,11.26,.92,71.68,10.68,109.6,91.73,172.11,91.86,64.71,.14,292.05-141.73,325.52-116.77"/>
        <path class="cls-1" d="M90.5,670.71s73.65,7.41,160.74,12.26c15.43,.86,28.31,2.03,40.02,3.2,40.05,3.99,51.33,7.2,90.99,1.6,41.44-5.85,60.65-23.5,112.45-28.66,19.93-1.98,37.58-2.32,56.43-.08,67.01,7.95,74.7,42.6,157.91,43.5,96.95,.95,164.05-105.18,230.34-105.58,3.62-.02,7.37,.36,11.26,.97,69.16,10.75,112.07,91.3,172.69,91.44,63,.15,301.67-147.07,333.33-120.13"/>
        <path class="cls-1" d="M90.5,668.47s71.8,11.13,158.33,16.4c14.89,.91,27.66,2,39.46,3,40.62,3.43,53.35,5.09,89.96-1.12,38.97-6.61,58.15-23.79,110.85-28.22,20.15-1.7,37.6-1.7,55.64,.68,64.62,8.55,72.16,42.5,155.48,43.32,98.26,.88,166.63-104.52,230.74-104.86,3.61-.01,7.36,.38,11.25,1.01,66.65,10.81,114.54,90.87,173.28,91.02,61.29,.16,311.29-152.41,341.14-123.48"/>
        <path class="cls-1" d="M90.5,666.23s69.96,14.83,155.92,20.53c14.35,.95,27,1.97,38.91,2.8,41.2,2.87,55.38,2.96,88.92-3.83,36.5-7.39,55.65-24.08,109.25-27.78,20.37-1.41,37.63-1.08,54.86,1.45,62.23,9.15,69.63,42.39,153.06,43.14,99.57,.81,169.21-103.86,231.13-104.14,3.61-.01,7.35,.39,11.25,1.05,64.15,10.86,117.01,90.45,173.86,90.6,59.57,.17,320.9-157.75,348.95-126.84"/>
        <path class="cls-1" d="M90.5,663.98s68.12,18.52,153.51,24.66c13.81,.99,26.35,1.93,38.35,2.59,41.77,2.3,57.39,.81,87.89-6.54,34.03-8.2,53.16-24.37,107.65-27.35,20.59-1.12,37.65-.46,54.08,2.22,59.83,9.77,67.09,42.29,150.63,42.96,100.88,.74,171.79-103.19,231.53-103.42,3.6,0,7.35,.4,11.24,1.09,61.64,10.89,119.48,90.02,174.45,90.19,57.86,.18,330.52-163.09,356.76-130.19"/>
        <path class="cls-1" d="M90.5,661.74s66.28,22.19,151.1,28.8c13.26,1.03,25.69,1.9,37.8,2.39,42.34,1.73,59.4-1.38,86.85-9.26,31.54-9.05,50.66-24.67,106.05-26.91,20.81-.84,37.67,.16,53.3,2.99,57.43,10.39,64.55,42.19,148.2,42.79,102.19,.67,174.37-102.53,231.93-102.7,3.59,0,7.34,.42,11.23,1.13,59.14,10.9,121.95,89.59,175.03,89.77,56.14,.19,340.14-168.43,364.57-133.55"/>
        <path class="cls-1" d="M90.5,659.5s64.44,25.84,148.69,32.93c12.72,1.07,25.04,1.84,37.24,2.19,42.91,1.09,61.39-3.61,85.82-11.97,29.04-9.95,48.16-25.08,104.45-26.47,21.03-.6,37.69,.79,52.52,3.76,55.03,11.02,62.01,42.09,145.78,42.61,103.5,.6,176.95-101.87,232.32-101.98,3.59,0,7.33,.43,11.23,1.17,56.64,10.9,124.42,89.17,175.62,89.35,54.43,.2,349.76-173.78,372.38-136.91"/>
        <path class="cls-1" d="M90.5,657.25s62.62,29.32,146.28,37.07c12.18,1.08,24.38,1.82,36.69,1.99,43.48,.54,63.36-5.87,84.78-14.69,26.49-10.9,45.67-25.34,102.85-26.04,21.25-.3,37.7,1.43,51.74,4.52,52.61,11.73,59.47,41.98,143.35,42.43,104.81,.53,179.54-101.2,232.72-101.26,3.58,0,7.33,.43,11.22,1.22,54.15,10.88,126.89,88.74,176.2,88.94,52.71,.21,359.38-179.12,380.19-140.26"/>
        <path class="cls-1" d="M90.5,655.01s79,42.99,180,42.99,82-43,185-43,85.77,47.08,191.88,47.54,182.12-100.54,233.12-100.54,137,89.55,188,89.78,369-184.46,388-143.62"/>
      </g>
    </g>
  </g>
</svg>